<svg xmlns:dc="http://purl.org/dc/elements/1.1/" xmlns:cc="http://creativecommons.org/ns#" xmlns:rdf="http://www.w3.org/1999/02/22-rdf-syntax-ns#" xmlns:svg="http://www.w3.org/2000/svg" xmlns="http://www.w3.org/2000/svg" xmlns:xlink="http://www.w3.org/1999/xlink" id="svg658745" version="1.1" viewBox="19.6 339.6 984.8 88.79">   <metadata id="metadata658751">     <rdf:rdf>       <cc:work rdf:about="">         <dc:format>image/svg+xml</dc:format>         <dc:type rdf:resource="http://purl.org/dc/dcmitype/StillImage"></dc:type>       </cc:work>     </rdf:rdf>   </metadata>   <defs id="defs658749"></defs>   <linearGradient spreadMethod="pad" y2="30%" x2="-10%" y1="120%" x1="30%" id="3d_gradient2-logo-94c7530f-69fb-4d76-ba94-25bbb899c3df">     <stop id="stop658726" stop-opacity="1" stop-color="#ffffff" offset="0%"></stop>     <stop id="stop658728" stop-opacity="1" stop-color="#000000" offset="100%"></stop>   </linearGradient>   <linearGradient gradientTransform="rotate(-30)" spreadMethod="pad" y2="30%" x2="-10%" y1="120%" x1="30%" id="3d_gradient3-logo-94c7530f-69fb-4d76-ba94-25bbb899c3df">     <stop id="stop658731" stop-opacity="1" stop-color="#ffffff" offset="0%"></stop>     <stop id="stop658733" stop-opacity="1" stop-color="#cccccc" offset="50%"></stop>     <stop id="stop658735" stop-opacity="1" stop-color="#000000" offset="100%"></stop>   </linearGradient>   <g id="logo-group">     <image xlink:href="" id="container" x="272" y="144" width="480" height="480" style="display: none;" transform="translate(0 0)"></image>     <g id="logo-center" transform="translate(0 0)">       <image xlink:href="" id="icon_container" style="display: none;" x="0" y="0"></image>       <g id="slogan" style="font-style:normal;font-weight:700;font-size:32px;line-height:1;font-family:'Maven Pro';font-variant-ligatures:none;text-align:center;text-anchor:middle" transform="translate(0 0)"></g>       <g id="title" style="font-style:normal;font-weight:normal;font-size:72px;line-height:1;font-family:'Brandmark Sans 2';font-variant-ligatures:normal;text-align:center;text-anchor:middle" transform="translate(0 0)">         <path id="path658754" style="font-style:normal;font-weight:normal;font-size:72px;line-height:1;font-family:'Brandmark Sans 2';font-variant-ligatures:normal;text-align:center;text-anchor:middle" d="m 258.36425,-41.544 -0.072,0.072 c 3.96,0 10.152,2.088 15.264,5.112 l 4.248,-9.288 c -5.04,-3.384 -11.88,-5.4 -18.432,-5.4 -8.928,0 -15.336,3.6 -17.712,9.504 h 16.416 z m -33.336,24.984 14.616,10.44 c 5.616,4.104 12.816,6.48 19.8,6.48 11.448,0 18.864,-5.976 18.864,-15.192 0,-10.584 -8.424,-13.176 -15.912,-15.408 l -0.144,-0.072 c -1.656,-0.504 -3.24,-1.008 -4.608,-1.584 h -16.344 c 2.016,6.768 8.928,8.784 15.12,10.584 5.328,1.584 9.936,2.952 9.936,7.128 0,3.168 -2.52,5.04 -6.768,5.04 -5.256,0 -12.456,-3.096 -17.352,-7.416 z" stroke-width="0" stroke-linejoin="miter" stroke-miterlimit="2" fill="#000000" stroke="#ebfbd2" transform="translate(0 326.35792000000004) translate(19.600550000000226 13.245440000000002) scale(1.72) translate(-225.02825 51.048)"></path>         <path id="path658756" style="font-style:normal;font-weight:normal;font-size:72px;line-height:1;font-family:'Brandmark Sans 2';font-variant-ligatures:normal;text-align:center;text-anchor:middle" d="m 323.2655,-50.472 h -40.392 v 9.504 h 14.472 v 40.896 h 11.304 v -40.896 h 14.616 z" stroke-width="0" stroke-linejoin="miter" stroke-miterlimit="2" fill="#000000" stroke="#e6f9d0" transform="translate(0 326.35792000000004) translate(119.09438000000011 14.236159999999998) scale(1.72) translate(-282.8735 50.472)"></path>         <path id="path658758" style="font-style:normal;font-weight:normal;font-size:72px;line-height:1;font-family:'Brandmark Sans 2';font-variant-ligatures:normal;text-align:center;text-anchor:middle" d="m 371.92962,-21.168 v -29.304 l -11.23199,0.072 v 29.304 c 0,7.128 -4.03201,11.736 -10.296,11.736 -6.33601,0 -10.584,-4.752 -10.584,-11.808 v -29.304 h -11.30401 v 29.304 c 0,13.392 8.35201,21.672 21.81601,21.672 13.32,0 21.59999,-8.28 21.59999,-21.672 z" stroke-width="0" stroke-linejoin="miter" stroke-miterlimit="2" fill="#000000" stroke="#e2f6ce" transform="translate(0 326.35792000000004) translate(197.59538640000017 14.236159999999998) scale(1.72) translate(-328.51362 50.472)"></path>         <path id="path658760" style="font-style:normal;font-weight:normal;font-size:72px;line-height:1;font-family:'Brandmark Sans 2';font-variant-ligatures:normal;text-align:center;text-anchor:middle" d="m 401.42825,-50.4 h -20.232 V 0 h 19.8 c 15.12,0 25.704,-10.368 25.704,-25.2 0,-15.048 -10.152,-25.2 -25.272,-25.2 z m -9,40.968 V -41.04 h 8.784 c 8.28,0 14.04,6.552 14.04,15.912 0,9.288 -5.544,15.768 -13.464,15.768 l -0.072,-0.072 z" stroke-width="0" stroke-linejoin="miter" stroke-miterlimit="2" fill="#000000" stroke="#000000" transform="translate(0 326.35792000000004) translate(288.2095100000002 14.36) scale(1.72) translate(-381.19625 50.4)"></path>         <path id="path658762" style="font-style:normal;font-weight:normal;font-size:72px;line-height:1;font-family:'Brandmark Sans 2';font-variant-ligatures:normal;text-align:center;text-anchor:middle" d="m 434.49313,0 h 11.30399 v -50.4 h -11.30399 z" stroke-width="0" stroke-linejoin="miter" stroke-miterlimit="2" fill="#000000" stroke="#d8f1ca" transform="translate(0 326.35792000000004) translate(379.88014360000017 14.36) scale(1.72) translate(-434.49313 50.4)"></path>         <path id="path658764" style="font-style:normal;font-weight:normal;font-size:72px;line-height:1;font-family:'Brandmark Sans 2';font-variant-ligatures:normal;text-align:center;text-anchor:middle" d="m 493.52413,-9.072 -26.42401,-0.144 v -11.376 h 23.11201 v -9.216 H 467.10012 V -41.04 h 25.632 v -9.216 h -36.86399 v 50.4 h 37.656 z" stroke-width="0" stroke-linejoin="miter" stroke-miterlimit="2" fill="#000000" stroke="#d3efc8" transform="translate(0 326.35792000000004) translate(416.64514360000015 14.607680000000002) scale(1.72) translate(-455.86813 50.256)"></path>         <path id="path658766" style="font-style:normal;font-weight:normal;font-size:72px;line-height:1;font-family:'Brandmark Sans 2';font-variant-ligatures:normal;text-align:center;text-anchor:middle" d="m 523.5965,-30.024 -0.072,-0.144 c -5.184,-1.584 -9.72,-2.952 -9.72,-6.984 0,-2.664 2.16,-4.248 5.832,-4.248 3.96,0 10.152,2.088 15.264,5.112 l 4.248,-9.288 c -5.04,-3.384 -11.88,-5.4 -18.432,-5.4 -11.448,0 -18.792,5.904 -18.792,14.976 0,10.296 8.352,12.744 15.696,14.904 5.328,1.584 9.936,2.952 9.936,7.128 0,3.168 -2.52,5.04 -6.768,5.04 -5.256,0 -12.456,-3.096 -17.352,-7.416 l -4.32,9.072 c 5.832,4.896 13.824,7.848 21.528,7.848 11.448,0 18.864,-5.976 18.864,-15.192 0,-10.584 -8.424,-13.176 -15.912,-15.408 z" stroke-width="0" stroke-linejoin="miter" stroke-miterlimit="2" fill="#000000" stroke="#000000" transform="translate(0 326.35792000000004) translate(491.0323400000001 13.369280000000003) scale(1.72) translate(-499.1165 50.976)"></path>         <path id="path658768" style="font-style:normal;font-weight:normal;font-size:72px;line-height:1;font-family:'Brandmark Sans 2';font-variant-ligatures:normal;text-align:center;text-anchor:middle" d="m 568.14762,-50.4 h -20.592 V 0 h 11.30401 v -16.488 h 9.28799 c 12.096,0 19.008,-5.688 19.008,-17.424 0,-11.088 -6.912,-16.488 -19.008,-16.488 z m -9.35999,24.696 v -15.408 h 8.712 c 5.832,0 9.072,2.088 9.072,7.632 0,5.616 -3.312,7.776 -9.072,7.776 z" stroke-width="0" stroke-linejoin="miter" stroke-miterlimit="2" fill="#000000" stroke="#000000" transform="translate(0 326.35792000000004) translate(574.3476264 14.36) scale(1.72) translate(-547.55562 50.4)"></path>         <path id="path658770" style="font-style:normal;font-weight:normal;font-size:72px;line-height:1;font-family:'Brandmark Sans 2';font-variant-ligatures:normal;text-align:center;text-anchor:middle" d="m 634.55975,-0.072 -10.8,-17.784 c 6.552,-2.304 10.152,-7.632 10.152,-16.128 0,-11.088 -6.912,-16.488 -19.008,-16.488 h -20.592 v 50.4 h 11.304 V -16.56 h 7.272 l 8.928,16.488 z m -29.016,-25.704 v -15.408 h 8.712 c 5.832,0 9.072,2.088 9.072,7.632 0,5.616 -3.312,7.776 -9.072,7.776 z" stroke-width="0" stroke-linejoin="miter" stroke-miterlimit="2" fill="#000000" stroke="#000000" transform="translate(0 326.35792000000004) translate(654.7681699999998 14.236159999999998) scale(1.72) translate(-594.31175 50.472)"></path>         <path id="path658772" style="font-style:normal;font-weight:normal;font-size:72px;line-height:1;font-family:'Brandmark Sans 2';font-variant-ligatures:normal;text-align:center;text-anchor:middle" d="m 690.43287,0 -20.016,-50.4 h -11.952 L 638.01688,0 h 11.51999 l 3.52801,-9.504 h 21.88799 l 3.456,9.504 z m -34.19999,-18.36 7.84799,-21.096 7.63201,21.096 z" stroke-width="0" stroke-linejoin="miter" stroke-miterlimit="2" fill="#000000" stroke="#c0e5c0" transform="translate(0 326.35792000000004) translate(729.9409935999998 14.36) scale(1.72) translate(-638.01688 50.4)"></path>         <path id="path658774" style="font-style:normal;font-weight:normal;font-size:72px;line-height:1;font-family:'Brandmark Sans 2';font-variant-ligatures:normal;text-align:center;text-anchor:middle" d="m 739.68763,-50.4 h -10.44001 v 32.904 l -23.184,-32.904 h -10.08 V 0 h 10.51201 V -32.832 L 729.60762,0 h 10.08001 z" stroke-width="0" stroke-linejoin="miter" stroke-miterlimit="2" fill="#000000" stroke="#bce2be" transform="translate(0 326.35792000000004) translate(829.6437863999998 14.36) scale(1.72) translate(-695.98362 50.4)"></path>         <path id="path658776" style="font-style:normal;font-weight:normal;font-size:72px;line-height:1;font-family:'Brandmark Sans 2';font-variant-ligatures:normal;text-align:center;text-anchor:middle" d="m 797.58575,-28.512 -20.376,0.144 v 9.216 h 10.008 v 3.456 c -2.952,3.888 -7.632,6.336 -12.528,6.336 -8.28,0 -16.128,-7.128 -16.128,-15.912 0,-8.856 7.704,-15.768 16.128,-15.768 4.104,0 8.064,1.728 11.016,4.536 l 9.72,-5.76 c -4.968,-5.4 -12.312,-8.712 -20.88,-8.712 -15.552,0 -27.288,11.016 -27.288,25.56 0,14.76 11.736,25.848 27.288,25.848 9.936,0 18.288,-4.536 23.04,-11.592 z" stroke-width="0" stroke-linejoin="miter" stroke-miterlimit="2" fill="#000000" stroke="#b7e0bc" transform="translate(0 326.35792000000004) translate(917.8352899999998 13.369280000000003) scale(1.72) translate(-747.25775 50.976)"></path>       </g>       <image xlink:href="" id="icon" style="display: none;" x="0" y="0"></image>     </g>   </g> </svg>